<svg width="24" height="24" viewBox="0 0 24 24" fill="none" xmlns="http://www.w3.org/2000/svg">
<circle cx="12" cy="12" r="11" stroke="white" stroke-width="2"/>
<path d="M12 16.2501C9.04432 16.2501 6.40475 15.704 4.53221 14.8528C2.59196 13.9709 1.75003 12.9058 1.75003 12.0001C1.75003 11.0943 2.59196 10.0292 4.53221 9.1473C6.40475 8.29614 9.04432 7.75006 12 7.75006C14.9557 7.75006 17.5953 8.29614 19.4679 9.1473C21.4081 10.0292 22.25 11.0943 22.25 12.0001C22.25 12.9058 21.4081 13.9709 19.4679 14.8528C17.5953 15.704 14.9557 16.2501 12 16.2501Z" stroke="white" stroke-width="1.5"/>
<rect x="12.75" y="0.999969" width="22" height="1.5" transform="rotate(90 12.75 0.999969)" fill="white"/>
</svg>
