<svg width="24" height="24" viewBox="0 0 24 24" fill="none" xmlns="http://www.w3.org/2000/svg">
<g id="24/Search">
<path id="Search-icon" fill-rule="evenodd" clip-rule="evenodd" d="M14.2426 5.75736C16.5858 8.1005 16.5858 11.8995 14.2426 14.2426C11.8995 16.5858 8.1005 16.5858 5.75736 14.2426C3.41421 11.8995 3.41421 8.1005 5.75736 5.75736C8.1005 3.41421 11.8995 3.41421 14.2426 5.75736ZM16.3202 14.906C18.7627 11.7676 18.5416 7.22787 15.6569 4.34315C12.5327 1.21895 7.46734 1.21895 4.34315 4.34315C1.21895 7.46734 1.21895 12.5327 4.34315 15.6569C7.21399 18.5277 11.7239 18.7605 14.8606 16.3553L20.3431 21.7574L21.7574 20.3431L16.3202 14.906Z" fill="white"/>
</g>
</svg>
